<svg width="1280" height="801" viewBox="0 0 1280 801" fill="none" xmlns="http://www.w3.org/2000/svg">
<g opacity="0.2" filter="url(#filter0_f_4825_24481)">
<ellipse cx="280.082" cy="424.193" rx="441.5" ry="133.774" transform="rotate(-18 280.082 424.193)" fill="#535353"/>
</g>
<g opacity="0.2" filter="url(#filter1_f_4825_24481)">
<ellipse cx="1179.62" cy="369.61" rx="441.5" ry="139.799" transform="rotate(171 1179.62 369.61)" fill="#535353"/>
</g>
<g opacity="0.2" filter="url(#filter2_f_4825_24481)">
<ellipse cx="639.486" cy="401.016" rx="441.5" ry="194.661" transform="rotate(7 639.486 401.016)" fill="#F7B955"/>
</g>
<path d="M0 587.607L43 574.607C85 561.607 171 535.607 256 491.607C341 446.607 427 382.607 512 350.607C597 318.607 683 318.607 768 356.607C853 395.607 939 471.607 1024 484.607C1109 497.607 1195 446.607 1237 420.607L1280 395.607" stroke="#7A8496"/>
<path d="M0 513.618L43 481.618C85 449.618 171 385.618 256 378.618C341 372.618 427 423.618 512 455.618C597 487.618 683 500.618 768 462.618C853 423.618 939 334.618 1024 302.618C1109 270.618 1195 295.618 1237 308.618L1280 321.618" stroke="#F5C342"/>
<path d="M0 509.992L43 478.897C85 447.801 171 385.611 256 376.849C341 368.992 427 414.516 512 443.468C597 472.42 683 484.801 768 450.42C853 415.135 939 333.992 1024 304.135C1109 274.278 1195 295.659 1237 306.801L1280 317.992" stroke="#EFC046"/>
<path d="M0 506.435L43 476.244C85 446.054 171 385.673 256 375.149C341 365.435 427 405.482 512 431.387C597 457.292 683 469.054 768 438.292C853 406.721 939 333.435 1024 305.721C1109 278.006 1195 295.768 1237 305.054L1280 314.435" stroke="#E9BD4A"/>
<path d="M0 502.979L43 473.693C85 444.407 171 385.836 256 373.55C341 361.979 427 396.55 512 419.407C597 442.265 683 453.407 768 426.265C853 398.407 939 332.979 1024 307.407C1109 281.836 1195 295.979 1237 303.407L1280 310.979" stroke="#E3BA4E"/>
<path d="M0 499.68L43 471.299C85 442.918 171 386.156 256 372.109C341 358.68 427 387.775 512 407.585C597 427.395 683 437.918 768 414.395C853 390.252 939 332.68 1024 309.252C1109 285.823 1195 296.347 1237 301.918L1280 307.68" stroke="#DEB752"/>
<path d="M0 496.646L43 469.17C85 441.694 171 386.742 256 370.932C341 355.646 427 379.265 512 396.027C597 412.789 683 422.694 768 402.789C853 382.361 939 332.646 1024 311.361C1109 290.075 1195 296.98 1237 300.694L1280 304.646" stroke="#D8B456"/>
<path d="M0 494.112L43 467.541C85 440.969 171 387.827 256 370.255C341 353.112 427 371.255 512 384.969C597 398.684 683 407.969 768 391.684C853 374.969 939 333.112 1024 313.969C1109 294.827 1195 298.112 1237 299.969L1280 302.112" stroke="#D2B15A"/>
<path d="M0 492.77L43 467.103C85 441.436 171 390.103 256 370.77C341 351.77 427 364.436 512 375.103C597 385.77 683 394.436 768 381.77C853 368.77 939 334.77 1024 317.77C1109 300.77 1195 300.436 1237 300.436L1280 300.77" stroke="#CCAE5E"/>
<path d="M0 494.356L43 469.594C85 444.832 171 395.308 256 374.213C341 353.356 427 360.546 512 368.165C597 375.784 683 383.832 768 374.784C853 365.499 939 339.356 1024 324.499C1109 309.642 1195 305.689 1237 303.832L1280 302.356" stroke="#C6AB62"/>
<path d="M0 496.275L43 472.418C85 448.561 171 400.847 256 377.99C341 355.275 427 356.99 512 361.561C597 366.132 683 373.561 768 368.132C853 362.561 939 344.275 1024 331.561C1109 318.847 1195 311.275 1237 307.561L1280 304.275" stroke="#C0A866"/>
<path d="M0 498.195L43 475.242C85 452.29 171 406.385 256 381.766C341 357.195 427 353.433 512 354.957C597 356.48 683 363.29 768 361.48C853 359.623 939 349.195 1024 338.623C1109 328.052 1195 316.861 1237 311.29L1280 306.195" stroke="#BAA56A"/>
<path d="M0 500.114L43 478.067C85 456.019 171 411.924 256 385.543C341 359.114 427 349.876 512 348.352C597 346.829 683 353.019 768 354.829C853 356.686 939 354.114 1024 345.686C1109 337.257 1195 322.448 1237 315.019L1280 308.114" stroke="#B5A26E"/>
<path d="M0 502.034L43 480.891C85 459.748 171 417.462 256 389.319C341 361.034 427 346.319 512 341.748C597 337.177 683 342.748 768 348.177C853 353.748 939 359.034 1024 352.748C1109 346.462 1195 328.034 1237 318.748L1280 310.034" stroke="#AF9F72"/>
<path d="M0 503.953L43 483.715C85 463.477 171 423.001 256 393.096C341 362.953 427 342.763 512 335.144C597 327.525 683 332.477 768 341.525C853 350.81 939 363.953 1024 359.81C1109 355.667 1195 333.62 1237 322.477L1280 311.953" stroke="#A99C76"/>
<path d="M0 505.873L43 486.539C85 467.206 171 428.539 256 396.873C341 364.873 427 339.206 512 328.539C597 317.873 683 322.206 768 334.873C853 347.873 939 368.873 1024 366.873C1109 364.873 1195 339.206 1237 326.206L1280 313.873" stroke="#A3997A"/>
<path d="M0 510.066L43 491.638C85 473.209 171 436.352 256 402.923C341 369.066 427 337.923 512 324.209C597 310.495 683 314.209 768 330.495C853 347.209 939 376.066 1024 376.209C1109 376.352 1195 347.066 1237 332.209L1280 318.066" stroke="#9D967E"/>
<path d="M0 522.945L43 505.422C85 487.898 171 452.85 256 417.66C341 381.945 427 345.326 512 328.564C597 311.803 683 314.898 768 334.803C853 355.231 939 391.945 1024 394.231C1109 396.517 1195 363.612 1237 346.898L1280 330.945" stroke="#979382"/>
<path d="M0 535.853L43 519.234C85 502.615 171 469.377 256 432.424C341 394.853 427 352.758 512 332.948C597 313.139 683 315.615 768 339.139C853 363.282 939 407.853 1024 412.282C1109 416.71 1195 380.186 1237 361.615L1280 343.853" stroke="#919086"/>
<path d="M0 548.778L43 533.063C85 517.349 171 485.921 256 447.206C341 407.778 427 360.206 512 337.349C597 314.492 683 316.349 768 343.492C853 371.349 939 423.778 1024 430.349C1109 436.921 1195 396.778 1237 376.349L1280 356.778" stroke="#8C8D8A"/>
<path d="M0 561.714L43 546.904C85 532.095 171 502.476 256 461.999C341 420.714 427 367.666 512 341.761C597 315.857 683 317.095 768 347.857C853 379.428 939 439.714 1024 448.428C1109 457.142 1195 413.38 1237 391.095L1280 369.714" stroke="#868A8E"/>
<path d="M0 574.658L43 560.753C85 546.848 171 519.039 256 476.801C341 433.658 427 375.134 512 346.182C597 317.229 683 317.848 768 352.229C853 387.515 939 455.658 1024 466.515C1109 477.372 1195 429.991 1237 405.848L1280 382.658" stroke="#808792"/>
<defs>
<filter id="filter0_f_4825_24481" x="-341.87" y="37.6444" width="1243.9" height="773.096" filterUnits="userSpaceOnUse" color-interpolation-filters="sRGB">
<feFlood flood-opacity="0" result="BackgroundImageFix"/>
<feBlend mode="normal" in="SourceGraphic" in2="BackgroundImageFix" result="shape"/>
<feGaussianBlur stdDeviation="100" result="effect1_foregroundBlur_4825_24481"/>
</filter>
<filter id="filter1_f_4825_24481" x="542.996" y="15.188" width="1273.24" height="708.844" filterUnits="userSpaceOnUse" color-interpolation-filters="sRGB">
<feFlood flood-opacity="0" result="BackgroundImageFix"/>
<feBlend mode="normal" in="SourceGraphic" in2="BackgroundImageFix" result="shape"/>
<feGaussianBlur stdDeviation="100" result="effect1_foregroundBlur_4825_24481"/>
</filter>
<filter id="filter2_f_4825_24481" x="0.62352" y="0.402344" width="1277.72" height="801.227" filterUnits="userSpaceOnUse" color-interpolation-filters="sRGB">
<feFlood flood-opacity="0" result="BackgroundImageFix"/>
<feBlend mode="normal" in="SourceGraphic" in2="BackgroundImageFix" result="shape"/>
<feGaussianBlur stdDeviation="100" result="effect1_foregroundBlur_4825_24481"/>
</filter>
</defs>
</svg>
